<?xml version="1.0" encoding="UTF-8"?>
<svg viewBox="0 0 14 14" xmlns="http://www.w3.org/2000/svg">
<path transform="rotate(-48 -55.835 103.22)" d="m57.701 78.108c-2.8622 0-5.1904 2.3285-5.1904 5.1904 0 2.7404 2.136 4.9856 4.8294 5.1722v3.2913h-2.0984c-0.1993 0-0.36105 0.16175-0.36105 0.36105s0.16175 0.36105 0.36105 0.36105h2.0984v2.0238c0 0.1993 0.16175 0.36105 0.36105 0.36105s0.36105-0.16175 0.36105-0.36105v-2.0238h2.188c0.1993 0 0.36105-0.16175 0.36105-0.36105s-0.16175-0.36105-0.36105-0.36105h-2.188v-3.2913c2.6937-0.18654 4.8296-2.432 4.8296-5.1722 0-2.8622-2.3285-5.1904-5.1907-5.1904zm0 9.659c-2.4638 0-4.4684-2.0045-4.4684-4.4684s2.0045-4.4684 4.4684-4.4684c2.464 0 4.4686 2.0045 4.4686 4.4684s-2.0045 4.4684-4.4686 4.4684z" fill="#F94094"/>
</svg>

