<?xml version="1.0" encoding="UTF-8"?>
<svg viewBox="0 0 13 14" xmlns="http://www.w3.org/2000/svg">
<path transform="translate(-111 -80.837)" d="m123.35 81.221c-9.29e-4 -0.001858-9.29e-4 -0.0037159-0.001858-0.0053416-0.035301-0.085698-0.10381-0.15421-0.18951-0.18951-0.001858-6.967e-4 -0.003716-9.29e-4 -0.005342-0.0016257-0.039481-0.015328-0.082214-0.024618-0.12704-0.024618h-3.7473c-0.1923 0-0.34837 0.15607-0.34837 0.34837 0 0.1923 0.15607 0.34837 0.34837 0.34837h2.9063l-3.2319 3.2324c-0.82818-0.60616-1.8456-0.96892-2.9483-0.96892-2.7619 0-5.0084 2.2467-5.0084 5.0081s2.2467 5.0081 5.0084 5.0081c2.7616 0 5.0081-2.2467 5.0081-5.0081 0-1.4076-0.58595-2.6792-1.5242-3.59l3.1887-3.1889v2.9068c0 0.1923 0.15607 0.34837 0.34837 0.34837 0.1923 0 0.34837-0.15607 0.34837-0.34837v-3.748c2.32e-4 -0.045055-0.008825-0.087556-0.024386-0.12704zm-3.0336 7.747c0 2.3773-1.9341 4.3114-4.3114 4.3114-2.3775 0-4.3116-1.9341-4.3116-4.3114 0-2.3773 1.9341-4.3114 4.3116-4.3114 2.3773 0 4.3114 1.9341 4.3114 4.3114z" fill="#0089FF"/>
</svg>
