<?xml version="1.0" encoding="UTF-8"?>
<svg width="56pt" height="179pt" version="1.1" viewBox="0 0 56 179" xmlns="http://www.w3.org/2000/svg">
<defs>
<clipPath id="a">
<path d="m10.105 105.79 5.3281 68.09c0.18359 2.3789 2.2031 4.2109 4.5898 4.2109h15.25c2.3867 0 4.4102-1.832 4.5938-4.2109l5.3281-68.09 5.8789-6.9531c2.7539-3.2969 4.4062-7.5039 4.4062-11.898v-36.605c0-1.6484-0.73438-3.2969-2.0195-4.2109-6.9805-5.8555-14.699-9.5195-16.168-10.434-0.18359 0-0.36719-0.18359-0.36719-0.36719v-4.7578c0.73438-1.4648 1.1016-2.9297 1.2852-4.3906 0.18359 0.17969 0.36719 0.17969 0.55078 0.17969 0.55469 0 1.4727-0.73047 2.3906-4.0234 0.91797-3.2969 0.36719-4.3945-0.36719-4.7617 2.5703-12.629-3.3086-12.996-3.3086-12.996s-0.91797-1.8281-3.3047-3.1094c-1.4727-0.73438-3.3086-1.4648-5.6953-1.4648h-1.1016c-0.92188 0-1.8398 0.18359-2.7578 0.55078-1.1016 0.36328-2.0195 0.91406-2.9375 1.4609-1.4727 0.91797-2.3906 1.6484-3.3086 2.7461-1.4688 1.4648-2.7539 3.2969-3.3047 5.8594-0.55469 2.0117-0.55469 4.207 0.36719 6.4062h-0.18359c-1.1055 0-2.0234 0.73047-0.92188 4.7578 0.92188 3.1133 1.6562 4.0273 2.3906 4.0273 0.18359 1.8281 0.91797 3.6602 1.8359 5.4922v4.0234c0 0.18359-0.18359 0.36719-0.36719 0.36719-1.4688 0.73438-9.1836 4.5781-16.168 10.434-1.2852 1.0977-2.0195 2.5625-2.0195 4.2109v36.789c0 4.3906 1.4688 8.418 4.2266 11.898z"/>
</clipPath>
</defs>
<g clip-path="url(#a)">
<rect width="56" height="179" fill="#d8d9df" fill-opacity=".2309"/>
</g>
</svg>

